{
    "asset": {
        "version": "2.0",
        "generator": "Open Asset Import Library (assimp v5.2.cf7d3637)"
    },
    "extensionsUsed": [
        "KHR_materials_volume",
        "FB_ngon_encoding"
    ],
    "accessors": [
        {
            "bufferView": 0,
            "byteOffset": 0,
            "componentType": 5126,
            "count": 72,
            "type": "VEC3",
            "max": [
                0.05255018174648285,
                0.08496534824371338,
                8.940696716308594e-8
            ],
            "min": [
                -0.2190546989440918,
                -0.08496534824371338,
                -0.031011760234832765
            ]
        },
        {
            "bufferView": 1,
            "byteOffset": 0,
            "componentType": 5126,
            "count": 72,
            "type": "VEC3",
            "max": [
                0.6414961218833923,
                0.9998933672904968,
                1.0
            ],
            "min": [
                -1.0,
                -0.9985049962997437,
                -1.0
            ]
        },
        {
            "bufferView": 2,
            "byteOffset": 0,
            "componentType": 5126,
            "count": 72,
            "type": "VEC2",
            "max": [
                0.09978152066469193,
                1.0711488723754883
            ],
            "min": [
                -0.1036359965801239,
                0.9237102270126343
            ]
        },
        {
            "bufferView": 3,
            "byteOffset": 0,
            "componentType": 5125,
            "count": 72,
            "type": "SCALAR",
            "max": [
                71
            ],
            "min": [
                0
            ]
        }
    ],
    "buffers": [
        {
            "byteLength": 2592,
            "uri": "result.bin"
        }
    ],
    "bufferViews": [
        {
            "buffer": 0,
            "byteOffset": 0,
            "byteLength": 864,
            "target": 34962
        },
        {
            "buffer": 0,
            "byteOffset": 864,
            "byteLength": 864,
            "target": 34962
        },
        {
            "buffer": 0,
            "byteOffset": 1728,
            "byteLength": 576,
            "target": 34962
        },
        {
            "buffer": 0,
            "byteOffset": 2304,
            "byteLength": 288,
            "target": 34963
        }
    ],
    "materials": [
        {
            "name": "mat2",
            "pbrMetallicRoughness": {
                "baseColorFactor": [
                    0.12999999523162843,
                    0.03999999910593033,
                    0.49000000953674319,
                    1.0
                ],
                "metallicFactor": 0.0
            }
        },
        {
            "name": "material"
        }
    ],
    "meshes": [
        {
            "name": "mesh1140289422",
            "primitives": [
                {
                    "mode": 4,
                    "material": 0,
                    "indices": 3,
                    "attributes": {
                        "POSITION": 0,
                        "NORMAL": 1,
                        "TEXCOORD_0": 2
                    }
                }
            ]
        }
    ],
    "nodes": [
        {
            "name": "group1140289422",
            "mesh": 0
        }
    ],
    "scenes": [
        {
            "nodes": [
                0
            ]
        }
    ],
    "scene": 0
}